<?xml version="1.0" encoding="UTF-8"?>
<svg id="_图层_1" data-name="图层 1" xmlns="http://www.w3.org/2000/svg" version="1.1" viewBox="0 0 200 200">
  <defs>
    <style>
      .cls-1 {
        fill: #fff42e;
      }

      .cls-1, .cls-2, .cls-3 {
        stroke-width: 0px;
      }

      .cls-2 {
        fill: #ffe55c;
      }

      .cls-3 {
        fill: #4d4d4d;
      }
    </style>
  </defs>
  <path class="cls-2" d="M159,101.6c0,29.2-23.7,52.8-52.9,52.8s-52.9-23.6-52.9-52.8,23.7-52.8,52.9-52.8c29.2,0,52.9,23.6,52.9,52.8"/>
  <path class="cls-3" d="M165.9,99.1c-2.3,0-4.3-1.8-4.5-4.2-.4-4.5-1.2-9.1-2.6-13.5-9.9-31.7-43.9-50.1-75.8-41-2.4.7-4.9-.7-5.6-3.1-.7-2.4.7-4.9,3.1-5.6,36.6-10.5,75.6,10.6,86.9,47,1.6,5.1,2.6,10.3,3,15.5.2,2.5-1.7,4.7-4.2,4.9-.1,0-.2,0-.4,0ZM57.5,53.4c-1.3,0-2.6-.6-3.5-1.6-1.6-1.9-1.3-4.8.6-6.4,3.5-2.9,7.3-5.5,11.3-7.7,2.2-1.2,5-.4,6.2,1.8,1.2,2.2.4,5-1.8,6.2-3.5,1.9-6.8,4.1-9.9,6.7-.8.7-1.8,1-2.9,1ZM99.9,170.4c-30.2,0-58.2-19.4-67.6-49.7-6.4-20.6-3.1-42.7,9-60.6,1.4-2.1,4.2-2.6,6.3-1.2,2.1,1.4,2.6,4.2,1.2,6.3-10.6,15.6-13.4,34.9-7.8,52.8,10.1,32.4,44.7,50.6,77.2,40.5,5.3-1.6,10.3-4,14.9-6.9,2.1-1.4,4.9-.7,6.3,1.4,1.3,2.1.7,4.9-1.4,6.3-5.3,3.4-11.1,6-17.1,7.9-7,2.2-14,3.2-21,3.2h0Z"/>
  <path class="cls-3" d="M83.5,128.9c-.8,0-1.5-.2-2.2-.6-1.4-.8-2.3-2.3-2.3-4v-49.4c0-1.7.9-3.2,2.3-4,1.4-.8,3.2-.7,4.6.1l39.1,24.7c1.3.8,2.1,2.3,2.1,3.8,0,1.6-.8,3-2.1,3.8l-39.1,24.7c-.7.5-1.6.7-2.4.7ZM88,83.2v32.9l26.1-16.5s-26.1-16.5-26.1-16.5Z"/>
  <path class="cls-1" d="M126.1,140.9l29.6-3-10,28-19.6-25Z"/>
  <path class="cls-3" d="M145.7,170.4c-1.4,0-2.7-.6-3.6-1.7l-19.6-25c-1-1.3-1.2-3.1-.6-4.6.6-1.5,2.1-2.6,3.7-2.7l29.6-3c1.6-.1,3.1.5,4,1.7,1,1.2,1.2,2.9.7,4.3l-10,28c-.6,1.6-1.9,2.7-3.5,3-.2,0-.5,0-.7,0h0ZM134.7,144.5l9.4,12,4.8-13.5-14.2,1.4Z"/>
</svg>